<?xml version="1.0" encoding="UTF-8"?>
<svg width="31px" height="49px" viewBox="0 0 31 49" version="1.1" xmlns="http://www.w3.org/2000/svg" xmlns:xlink="http://www.w3.org/1999/xlink">
    <!-- Generator: Sketch 43.1 (39012) - http://www.bohemiancoding.com/sketch -->
    <title>souris</title>
    <desc>Created with Sketch.</desc>
    <defs>
        <path d="M0,13.3796543 C0,5.99027526 5.98232305,0 13.3731257,0 L13.0633298,0 C20.4491031,0 26.503351,5.99185589 26.5857617,13.3734057 L26.7421712,27.3830495 C26.8246307,34.7689775 21.1185865,42.3649214 14.0054915,44.3468006 L13.3715302,44.5234375 L12.94178,44.4113259 C5.79423226,42.5467018 0,35.0463078 0,27.6554711 L0,13.3796543 Z" id="path-1"></path>
        <filter x="-13.1%" y="-5.6%" width="126.2%" height="115.7%" filterUnits="objectBoundingBox" id="filter-2">
            <feOffset dx="0" dy="1" in="SourceAlpha" result="shadowOffsetOuter1"></feOffset>
            <feGaussianBlur stdDeviation="1" in="shadowOffsetOuter1" result="shadowBlurOuter1"></feGaussianBlur>
            <feComposite in="shadowBlurOuter1" in2="SourceAlpha" operator="out" result="shadowBlurOuter1"></feComposite>
            <feColorMatrix values="0 0 0 0 0.690196078   0 0 0 0 0.690196078   0 0 0 0 0.690196078  0 0 0 0.724439538 0" type="matrix" in="shadowBlurOuter1"></feColorMatrix>
        </filter>
    </defs>
    <g id="Page-1" stroke="none" stroke-width="1" fill="none" fill-rule="evenodd">
        <g id="mouse" transform="translate(2.000000, 1.000000)">
            <g id="souris">
                <use fill="black" fill-opacity="1" filter="url(#filter-2)" xlink:href="#path-1"></use>
                <use fill="#FFFFFF" fill-rule="evenodd" xlink:href="#path-1"></use>
                <path stroke="#FFFFFF" stroke-width="3" d="M13.2181688,1.50098975 C19.7101242,1.5840198 25.0131788,6.88050999 25.0858552,13.3901513 L25.2422646,27.399795 C25.3171218,34.1047748 20.0626716,41.1019893 13.6028906,42.9018396 L13.358679,42.9698828 L13.3204217,42.9599023 C6.83294274,41.2674744 1.5,34.3632738 1.5,27.6554711 L1.5,13.3796543 C1.5,6.86846376 6.72928379,1.58392508 13.2181688,1.50098975 L13.2181688,1.50098975 Z"></path>
            </g>
        </g>
    </g>
</svg>