<?xml version="1.0" encoding="UTF-8"?>
<svg width="318px" height="318px" viewBox="0 0 318 318" version="1.1" xmlns="http://www.w3.org/2000/svg" xmlns:xlink="http://www.w3.org/1999/xlink">
    <!-- Generator: Sketch 43.1 (39012) - http://www.bohemiancoding.com/sketch -->
    <title>Group</title>
    <desc>Created with Sketch.</desc>
    <defs></defs>
    <g id="Page-1" stroke="none" stroke-width="1" fill="none" fill-rule="evenodd">
        <g id="Artboard" transform="translate(-126.000000, -11.000000)" stroke-width="3">
            <g id="Group" transform="translate(128.000000, 13.000000)">
                <path d="M236.67737,57.4873675 C236.82716,58.0157123 236.988831,58.5934695 237.159951,59.214012 C237.795317,61.5180694 238.4307,63.9372974 239.023353,66.3548792 C239.382333,67.8192477 239.714784,69.2398411 240.015367,70.6019185 C240.897122,74.5975509 241.468453,77.9214999 241.647328,80.3211891 C241.99815,85.0276316 241.460745,93.7174525 240.494467,103.451125 L240.437424,104.02574 L240.780412,104.490277 C249.715986,116.592459 253.5,132.141214 253.5,153 C253.5,171.281475 249.885102,183.488848 238.857866,195.548321 C229.85564,205.393228 209.552156,213.152227 184.46188,216.525678 L180.673047,217.035096 L183.797339,219.238178 C193.569592,226.129042 199.5,237.314465 199.5,249.498559 L199.5,284.320312 C199.5,292.937192 183.033409,300.5 162.506811,300.5 L156.493189,300.5 C147.410101,300.5 138.387845,298.373117 129.850057,294.824821 C126.857785,293.581236 124.141917,292.249273 121.755242,290.91907 C120.922987,290.455217 120.192445,290.025504 119.570168,289.641235 C119.546267,289.626475 119.522877,289.612002 119.5,289.597819 L119.5,249.503122 C119.5,237.626641 125.131037,226.691024 134.492834,219.752335 L137.561771,217.477729 L133.765103,217.056399 C111.182451,214.55032 92.9602207,208.572945 83.3188679,200.001983 C69.9111806,188.082828 60.9121094,165.508525 60.9121094,145.160156 C60.9121094,131.558636 66.0469025,117.53747 74.7660271,105.56265 L75.147029,105.039383 L75.0277044,104.403197 C73.5432322,96.4886547 72.6513102,88.8944277 73.0003324,83.6305739 C73.1485319,81.3954713 73.5917494,78.6821046 74.28349,75.6021067 C74.7241562,73.640026 75.2566403,71.5693413 75.8611203,69.4313014 C76.5049399,67.1541179 77.1952332,64.9221977 77.8854071,62.8303998 C78.056947,62.310492 78.2197037,61.8260127 78.3715898,61.3811897 C79.2379924,61.5682682 80.195915,61.7805387 81.2233184,62.0149605 C84.3295068,62.7236972 87.4350574,63.488727 90.3292269,64.2805804 C93.9964071,65.2839319 97.0509233,66.2570896 99.2718023,67.1630573 C99.528136,67.267624 99.7723829,67.3709291 100.004217,67.4728756 C103.884385,69.1791398 110.434388,73.1528058 117.874303,78.0636968 L118.414742,78.4204259 L119.045002,78.2717594 C131.883702,75.2433501 146.512052,73.640625 160.384766,73.640625 C174.538944,73.640625 183.606683,74.3196874 193.247976,76.5347889 L193.961754,76.6987803 L194.530041,76.2368046 C201.232023,70.7885833 208.260463,65.8257132 213.625323,63.4139148 C216.050383,62.3237173 219.226295,61.2857655 222.963091,60.3160245 C226.241584,59.4652182 229.762032,58.7141158 233.283551,58.0711471 C234.51243,57.846775 235.653529,57.6518828 236.67737,57.4873675 L236.67737,57.4873675 Z" id="Combined-Shape" stroke="#979797"></path>
                <path d="M157,314 C70.2912943,314 0,243.708706 0,157 C0,70.2912943 70.2912943,2.84217094e-14 157,2.84217094e-14 C243.708706,2.84217094e-14 314,70.2912943 314,157 C314,243.708706 243.708706,314 157,314 Z M156,295.5 C231.663011,295.5 293,234.163011 293,158.5 C293,82.8369893 231.663011,21.5 156,21.5 C80.3369893,21.5 19,82.8369893 19,158.5 C19,234.163011 80.3369893,295.5 156,295.5 Z" id="Combined-Shape" stroke="#9B9B9B"></path>
            </g>
        </g>
    </g>
</svg>