<?xml version="1.0" encoding="UTF-8"?>
<svg width="27px" height="200px" viewBox="0 0 27 95" version="1.1" xmlns="http://www.w3.org/2000/svg" xmlns:xlink="http://www.w3.org/1999/xlink">
    <defs>
        <style type="text/css">
            #mouse-queue {
              stroke-dasharray: 50;
              stroke-dashoffset: 50;
              animation: dash 2s infinite forwards;
            }

            @keyframes dash {
                from {
                  stroke-dashoffset: 50;
                }
                to {
                  stroke-dashoffset: 0;
                }
            }

            #mouse {
            cursor: pointer;
            }

            #mouse:hover {
                transform: translateY(60px);
            }
        </style>
        <path d="M0,13.3796543 C0,5.99027526 5.98232305,0 13.3731257,0 L13.0633298,0 C20.4491031,0 26.503351,5.99185589 26.5857617,13.3734057 L26.7421712,27.3830495 C26.8246307,34.7689775 21.1185865,42.3649214 14.0054915,44.3468006 L13.3715302,44.5234375 L12.94178,44.4113259 C5.79423226,42.5467018 0,35.0463078 0,27.6554711 L0,13.3796543 Z M24.9335933,30.0736759 L13.5935931,30.0736759 L13.5935931,41.0110677 L16.7025184,40.0932333 C19.3938713,39.298677 22.4579056,36.4000351 23.5483999,33.6133918 L24.9335933,30.0736759 Z M1.5530599,30.0585445 L2.91886641,33.5487192 C4.01995641,36.3624388 7.25983491,39.3328638 10.1572583,40.1882575 L12.89306,40.9959362 L12.89306,30.0585445 L1.5530599,30.0585445 Z" id="path-1"></path>
    </defs>
    <g id="Page-1" stroke="none" stroke-width="1" fill="none" fill-rule="evenodd">
        <g id="Group">
            <g id="mouse" transform="translate(0.000000, 50.000000)">
                <g id="Combined-Shape">
                    <use fill="#FFFFFF" fill-rule="evenodd" xlink:href="#path-1"></use>
                    <path stroke="#FFFFFF" stroke-width="3" d="M13.2181688,1.50098975 C19.7101242,1.5840198 25.0131788,6.88050999 25.0858552,13.3901513 L25.2422646,27.399795 C25.3171218,34.1047748 20.0626716,41.1019893 13.6028906,42.9018396 L13.358679,42.9698828 L13.3204217,42.9599023 C6.83294274,41.2674744 1.5,34.3632738 1.5,27.6554711 L1.5,13.3796543 C1.5,6.86846376 6.72928379,1.58392508 13.2181688,1.50098975 L13.2181688,1.50098975 Z M24.9335933,28.5736759 L13.5935931,28.5736759 L12.0935931,28.5736759 L12.0935931,30.0736759 L12.0935931,41.0110677 L12.0935931,43.0179093 L14.0183094,42.4496837 L17.1272347,41.5318493 C20.2722905,40.6033483 23.6892343,37.3696426 24.9452524,34.1600207 L26.3304458,30.6203048 L27.1313509,28.5736759 L24.9335933,28.5736759 Z M0.1562074,30.6051733 L1.52201391,34.0953481 C2.79172243,37.3399545 6.39002781,40.6400777 9.73254201,41.6268735 L12.4683437,42.4345522 L14.39306,43.0027778 L14.39306,40.9959362 L14.39306,30.0585445 L14.39306,28.5585445 L12.89306,28.5585445 L1.5530599,28.5585445 L-0.644697772,28.5585445 L0.1562074,30.6051733 Z"></path>
                </g>
            </g>
            <path d="M13.5,0.5 L13.5,45.5" id="mouse-queue" stroke="#FFFFFF" stroke-width="3" stroke-linecap="square"></path>
        </g>
    </g>
</svg>